<?xml version="1.0" encoding="UTF-8" standalone="no"?>
<!-- Created with Inkscape (http://www.inkscape.org/) -->

<svg
   xmlns:dc="http://purl.org/dc/elements/1.1/"
   xmlns:cc="http://creativecommons.org/ns#"
   xmlns:rdf="http://www.w3.org/1999/02/22-rdf-syntax-ns#"
   xmlns:svg="http://www.w3.org/2000/svg"
   xmlns="http://www.w3.org/2000/svg"
   xmlns:xlink="http://www.w3.org/1999/xlink"
   xmlns:sodipodi="http://sodipodi.sourceforge.net/DTD/sodipodi-0.dtd"
   xmlns:inkscape="http://www.inkscape.org/namespaces/inkscape"
   id="svg2"
   version="1.1"
   inkscape:version="0.48.4 r9939"
   width="720"
   height="540"
   xml:space="preserve"
   sodipodi:docname="CNpitching2.eps"><metadata
     id="metadata8"><rdf:RDF><cc:Work
         rdf:about=""><dc:format>image/svg+xml</dc:format><dc:type
           rdf:resource="http://purl.org/dc/dcmitype/StillImage" /><dc:title></dc:title></cc:Work></rdf:RDF></metadata><defs
     id="defs6"><linearGradient
       inkscape:collect="always"
       id="linearGradient4464"><stop
         style="stop-color:#000000;stop-opacity:1;"
         offset="0"
         id="stop4466" /><stop
         style="stop-color:#000000;stop-opacity:0;"
         offset="1"
         id="stop4468" /></linearGradient><marker
       inkscape:stockid="Arrow1Lend"
       orient="auto"
       refY="0.0"
       refX="0.0"
       id="Arrow1Lend"
       style="overflow:visible;"><path
         id="path3999"
         d="M 0.0,0.0 L 5.0,-5.0 L -12.5,0.0 L 5.0,5.0 L 0.0,0.0 z "
         style="fill-rule:evenodd;stroke:#000000;stroke-width:1.0pt;"
         transform="scale(0.8) rotate(180) translate(12.5,0)" /></marker><marker
       inkscape:stockid="Arrow1Lend"
       orient="auto"
       refY="0"
       refX="0"
       id="Arrow1Lend-8"
       style="overflow:visible"><path
         inkscape:connector-curvature="0"
         id="path3999-1"
         d="M 0,0 5,-5 -12.5,0 5,5 0,0 z"
         style="fill-rule:evenodd;stroke:#000000;stroke-width:1pt"
         transform="matrix(-0.8,0,0,-0.8,-10,0)" /></marker><radialGradient
       inkscape:collect="always"
       xlink:href="#linearGradient4464"
       id="radialGradient4470"
       cx="398.46777"
       cy="44.44006"
       fx="398.46777"
       fy="44.44006"
       r="81.492188"
       gradientTransform="matrix(1,0,0,0.08547239,0,40.641662)"
       gradientUnits="userSpaceOnUse" /></defs><sodipodi:namedview
     pagecolor="#ffffff"
     bordercolor="#666666"
     borderopacity="1"
     objecttolerance="10"
     gridtolerance="10"
     guidetolerance="10"
     inkscape:pageopacity="0"
     inkscape:pageshadow="2"
     inkscape:window-width="1680"
     inkscape:window-height="995"
     id="namedview4"
     showgrid="false"
     inkscape:zoom="1.2335085"
     inkscape:cx="303.15864"
     inkscape:cy="269.07357"
     inkscape:window-x="0"
     inkscape:window-y="30"
     inkscape:window-maximized="1"
     inkscape:current-layer="g10" /><g
     id="g10"
     inkscape:groupmode="layer"
     inkscape:label="ink_ext_XXXXXX"
     transform="matrix(1.25,0,0,-1.25,0,540)"><g
       id="g12"
       transform="scale(0.1,0.1)"><path
         d="m 490,320 5089,0 0,3879 -5089,0 0,-3879 z"
         style="fill:#ffffff;fill-opacity:1;fill-rule:nonzero;stroke:none"
         id="path14" /><path
         d="m 490,320 5089.5,0"
         style="fill:none;stroke:#000000;stroke-opacity:1;stroke-width:1.25;stroke-linecap:butt;stroke-linejoin:miter;stroke-miterlimit:3.8;stroke-dasharray:5,10;stroke-dashoffset:0"
         id="path16" /><path
         d="m 490,320 44,0"
         style="fill:none;stroke:#000000;stroke-opacity:1;stroke-width:5;stroke-linecap:butt;stroke-linejoin:miter;stroke-miterlimit:3.8;stroke-dasharray:none"
         id="path18" /><g
         id="g20"
         transform="scale(10,10)"><text
           transform="matrix(1,0,0,-1,31,28.6648)"
           id="text22"><tspan
             style="fill:#000000;fill-opacity:1;fill-rule:nonzero;stroke:none;font-family:Courier 10 Pitch;font-variant:normal;font-weight:normal;font-size:10;writing-mode:lr;-inkscape-font-specification:Courier"
             x="0 6"
             y="0"
             sodipodi:role="line"
             id="tspan24">-1</tspan></text>
</g><path
         d="m 490,966.5 5089.5,0"
         style="fill:none;stroke:#000000;stroke-opacity:1;stroke-width:1.25;stroke-linecap:butt;stroke-linejoin:miter;stroke-miterlimit:3.8;stroke-dasharray:5,10;stroke-dashoffset:0"
         id="path26" /><path
         d="m 490,966.5 44,0"
         style="fill:none;stroke:#000000;stroke-opacity:1;stroke-width:5;stroke-linecap:butt;stroke-linejoin:miter;stroke-miterlimit:3.8;stroke-dasharray:none"
         id="path28" /><g
         id="g30"
         transform="scale(10,10)"><text
           transform="matrix(1,0,0,-1,19,93.3148)"
           id="text32"><tspan
             style="fill:#000000;fill-opacity:1;fill-rule:nonzero;stroke:none;font-family:Courier 10 Pitch;font-variant:normal;font-weight:normal;font-size:10;writing-mode:lr;-inkscape-font-specification:Courier"
             x="0 6 12 18"
             y="0"
             sodipodi:role="line"
             id="tspan34">-0.5</tspan></text>
</g><path
         d="m 490,1613 5089.5,0"
         style="fill:none;stroke:#000000;stroke-opacity:1;stroke-width:1.25;stroke-linecap:butt;stroke-linejoin:miter;stroke-miterlimit:3.8;stroke-dasharray:5,10;stroke-dashoffset:0"
         id="path36" /><path
         d="m 490,1613 44,0"
         style="fill:none;stroke:#000000;stroke-opacity:1;stroke-width:5;stroke-linecap:butt;stroke-linejoin:miter;stroke-miterlimit:3.8;stroke-dasharray:none"
         id="path38" /><g
         id="g40"
         transform="scale(10,10)"><text
           transform="matrix(1,0,0,-1,37,157.965)"
           id="text42"><tspan
             style="fill:#000000;fill-opacity:1;fill-rule:nonzero;stroke:none;font-family:Courier 10 Pitch;font-variant:normal;font-weight:normal;font-size:10;writing-mode:lr;-inkscape-font-specification:Courier"
             x="0"
             y="0"
             id="tspan44">0</tspan></text>
</g><path
         d="m 490,2260 5089.5,0"
         style="fill:none;stroke:#000000;stroke-opacity:1;stroke-width:1.25;stroke-linecap:butt;stroke-linejoin:miter;stroke-miterlimit:3.8;stroke-dasharray:5,10;stroke-dashoffset:0"
         id="path46" /><path
         d="m 490,2260 44,0"
         style="fill:none;stroke:#000000;stroke-opacity:1;stroke-width:5;stroke-linecap:butt;stroke-linejoin:miter;stroke-miterlimit:3.8;stroke-dasharray:none"
         id="path48" /><g
         id="g50"
         transform="scale(10,10)"><text
           transform="matrix(1,0,0,-1,25,222.665)"
           id="text52"><tspan
             style="fill:#000000;fill-opacity:1;fill-rule:nonzero;stroke:none;font-family:Courier 10 Pitch;font-variant:normal;font-weight:normal;font-size:10;writing-mode:lr;-inkscape-font-specification:Courier"
             x="0 6 12"
             y="0"
             sodipodi:role="line"
             id="tspan54">0.5</tspan></text>
</g><path
         d="m 490,2906.5 5089.5,0"
         style="fill:none;stroke:#000000;stroke-opacity:1;stroke-width:1.25;stroke-linecap:butt;stroke-linejoin:miter;stroke-miterlimit:3.8;stroke-dasharray:5,10;stroke-dashoffset:0"
         id="path56" /><path
         d="m 490,2906.5 44,0"
         style="fill:none;stroke:#000000;stroke-opacity:1;stroke-width:5;stroke-linecap:butt;stroke-linejoin:miter;stroke-miterlimit:3.8;stroke-dasharray:none"
         id="path58" /><g
         id="g60"
         transform="scale(10,10)"><text
           transform="matrix(1,0,0,-1,37,287.315)"
           id="text62"><tspan
             style="fill:#000000;fill-opacity:1;fill-rule:nonzero;stroke:none;font-family:Courier 10 Pitch;font-variant:normal;font-weight:normal;font-size:10;writing-mode:lr;-inkscape-font-specification:Courier"
             x="0"
             y="0"
             id="tspan64">1</tspan></text>
</g><path
         d="m 490,3553 5089.5,0"
         style="fill:none;stroke:#000000;stroke-opacity:1;stroke-width:1.25;stroke-linecap:butt;stroke-linejoin:miter;stroke-miterlimit:3.8;stroke-dasharray:5,10;stroke-dashoffset:0"
         id="path66" /><path
         d="m 490,3553 44,0"
         style="fill:none;stroke:#000000;stroke-opacity:1;stroke-width:5;stroke-linecap:butt;stroke-linejoin:miter;stroke-miterlimit:3.8;stroke-dasharray:none"
         id="path68" /><g
         id="g70"
         transform="scale(10,10)"><text
           transform="matrix(1,0,0,-1,25,351.965)"
           id="text72"><tspan
             style="fill:#000000;fill-opacity:1;fill-rule:nonzero;stroke:none;font-family:Courier 10 Pitch;font-variant:normal;font-weight:normal;font-size:10;writing-mode:lr;-inkscape-font-specification:Courier"
             x="0 6 12"
             y="0"
             sodipodi:role="line"
             id="tspan74">1.5</tspan></text>
</g><path
         d="m 490,4199.5 5089.5,0"
         style="fill:none;stroke:#000000;stroke-opacity:1;stroke-width:1.25;stroke-linecap:butt;stroke-linejoin:miter;stroke-miterlimit:3.8;stroke-dasharray:5,10;stroke-dashoffset:0"
         id="path76" /><path
         d="m 490,4199.5 44,0"
         style="fill:none;stroke:#000000;stroke-opacity:1;stroke-width:5;stroke-linecap:butt;stroke-linejoin:miter;stroke-miterlimit:3.8;stroke-dasharray:none"
         id="path78" /><g
         id="g80"
         transform="scale(10,10)"><text
           transform="matrix(1,0,0,-1,37,416.615)"
           id="text82"><tspan
             style="fill:#000000;fill-opacity:1;fill-rule:nonzero;stroke:none;font-family:Courier 10 Pitch;font-variant:normal;font-weight:normal;font-size:10;writing-mode:lr;-inkscape-font-specification:Courier"
             x="0"
             y="0"
             id="tspan84">2</tspan></text>
</g><path
         d="m 490,320 0,3879.5"
         style="fill:none;stroke:#000000;stroke-opacity:1;stroke-width:1.25;stroke-linecap:butt;stroke-linejoin:miter;stroke-miterlimit:3.8;stroke-dasharray:5,10;stroke-dashoffset:0"
         id="path86" /><path
         d="m 490,320 0,44"
         style="fill:none;stroke:#000000;stroke-opacity:1;stroke-width:5;stroke-linecap:butt;stroke-linejoin:miter;stroke-miterlimit:3.8;stroke-dasharray:none"
         id="path88" /><g
         id="g90"
         transform="scale(10,10)"><text
           transform="matrix(1,0,0,-1,40,18.6648)"
           id="text92"><tspan
             style="fill:#000000;fill-opacity:1;fill-rule:nonzero;stroke:none;font-family:Courier 10 Pitch;font-variant:normal;font-weight:normal;font-size:10;writing-mode:lr;-inkscape-font-specification:Courier"
             x="0 6 12"
             y="0"
             sodipodi:role="line"
             id="tspan94">-10</tspan></text>
</g><path
         d="m 1217,320 0,3879.5"
         style="fill:none;stroke:#000000;stroke-opacity:1;stroke-width:1.25;stroke-linecap:butt;stroke-linejoin:miter;stroke-miterlimit:3.8;stroke-dasharray:5,10;stroke-dashoffset:0"
         id="path96" /><path
         d="m 1217,320 0,44"
         style="fill:none;stroke:#000000;stroke-opacity:1;stroke-width:5;stroke-linecap:butt;stroke-linejoin:miter;stroke-miterlimit:3.8;stroke-dasharray:none"
         id="path98" /><g
         id="g100"
         transform="scale(10,10)"><text
           transform="matrix(1,0,0,-1,115.7,18.6648)"
           id="text102"><tspan
             style="fill:#000000;fill-opacity:1;fill-rule:nonzero;stroke:none;font-family:Courier 10 Pitch;font-variant:normal;font-weight:normal;font-size:10;writing-mode:lr;-inkscape-font-specification:Courier"
             x="0 6"
             y="0"
             sodipodi:role="line"
             id="tspan104">-5</tspan></text>
</g><path
         d="m 1944,320 0,3879.5"
         style="fill:none;stroke:#000000;stroke-opacity:1;stroke-width:1.25;stroke-linecap:butt;stroke-linejoin:miter;stroke-miterlimit:3.8;stroke-dasharray:5,10;stroke-dashoffset:0"
         id="path106" /><path
         d="m 1944,320 0,44"
         style="fill:none;stroke:#000000;stroke-opacity:1;stroke-width:5;stroke-linecap:butt;stroke-linejoin:miter;stroke-miterlimit:3.8;stroke-dasharray:none"
         id="path108" /><g
         id="g110"
         transform="scale(10,10)"><text
           transform="matrix(1,0,0,-1,191.4,18.6648)"
           id="text112"><tspan
             style="fill:#000000;fill-opacity:1;fill-rule:nonzero;stroke:none;font-family:Courier 10 Pitch;font-variant:normal;font-weight:normal;font-size:10;writing-mode:lr;-inkscape-font-specification:Courier"
             x="0"
             y="0"
             id="tspan114">0</tspan></text>
</g><path
         d="m 2671,320 0,3879.5"
         style="fill:none;stroke:#000000;stroke-opacity:1;stroke-width:1.25;stroke-linecap:butt;stroke-linejoin:miter;stroke-miterlimit:3.8;stroke-dasharray:5,10;stroke-dashoffset:0"
         id="path116" /><path
         d="m 2671,320 0,44"
         style="fill:none;stroke:#000000;stroke-opacity:1;stroke-width:5;stroke-linecap:butt;stroke-linejoin:miter;stroke-miterlimit:3.8;stroke-dasharray:none"
         id="path118" /><g
         id="g120"
         transform="scale(10,10)"><text
           transform="matrix(1,0,0,-1,264.1,18.6648)"
           id="text122"><tspan
             style="fill:#000000;fill-opacity:1;fill-rule:nonzero;stroke:none;font-family:Courier 10 Pitch;font-variant:normal;font-weight:normal;font-size:10;writing-mode:lr;-inkscape-font-specification:Courier"
             x="0"
             y="0"
             id="tspan124">5</tspan></text>
</g><path
         d="m 3398.5,320 0,3879.5"
         style="fill:none;stroke:#000000;stroke-opacity:1;stroke-width:1.25;stroke-linecap:butt;stroke-linejoin:miter;stroke-miterlimit:3.8;stroke-dasharray:5,10;stroke-dashoffset:0"
         id="path126" /><path
         d="m 3398.5,320 0,44"
         style="fill:none;stroke:#000000;stroke-opacity:1;stroke-width:5;stroke-linecap:butt;stroke-linejoin:miter;stroke-miterlimit:3.8;stroke-dasharray:none"
         id="path128" /><g
         id="g130"
         transform="scale(10,10)"><text
           transform="matrix(1,0,0,-1,333.85,18.6648)"
           id="text132"><tspan
             style="fill:#000000;fill-opacity:1;fill-rule:nonzero;stroke:none;font-family:Courier 10 Pitch;font-variant:normal;font-weight:normal;font-size:10;writing-mode:lr;-inkscape-font-specification:Courier"
             x="0 6"
             y="0"
             sodipodi:role="line"
             id="tspan134">10</tspan></text>
</g><path
         d="m 4125.5,320 0,3879.5"
         style="fill:none;stroke:#000000;stroke-opacity:1;stroke-width:1.25;stroke-linecap:butt;stroke-linejoin:miter;stroke-miterlimit:3.8;stroke-dasharray:5,10;stroke-dashoffset:0"
         id="path136" /><path
         d="m 4125.5,320 0,44"
         style="fill:none;stroke:#000000;stroke-opacity:1;stroke-width:5;stroke-linecap:butt;stroke-linejoin:miter;stroke-miterlimit:3.8;stroke-dasharray:none"
         id="path138" /><g
         id="g140"
         transform="scale(10,10)"><text
           transform="matrix(1,0,0,-1,406.55,18.6648)"
           id="text142"><tspan
             style="fill:#000000;fill-opacity:1;fill-rule:nonzero;stroke:none;font-family:Courier 10 Pitch;font-variant:normal;font-weight:normal;font-size:10;writing-mode:lr;-inkscape-font-specification:Courier"
             x="0 6"
             y="0"
             sodipodi:role="line"
             id="tspan144">15</tspan></text>
</g><path
         d="m 4852.5,320 0,3879.5"
         style="fill:none;stroke:#000000;stroke-opacity:1;stroke-width:1.25;stroke-linecap:butt;stroke-linejoin:miter;stroke-miterlimit:3.8;stroke-dasharray:5,10;stroke-dashoffset:0"
         id="path146" /><path
         d="m 4852.5,320 0,44"
         style="fill:none;stroke:#000000;stroke-opacity:1;stroke-width:5;stroke-linecap:butt;stroke-linejoin:miter;stroke-miterlimit:3.8;stroke-dasharray:none"
         id="path148" /><g
         id="g150"
         transform="scale(10,10)"><text
           transform="matrix(1,0,0,-1,479.25,18.6648)"
           id="text152"><tspan
             style="fill:#000000;fill-opacity:1;fill-rule:nonzero;stroke:none;font-family:Courier 10 Pitch;font-variant:normal;font-weight:normal;font-size:10;writing-mode:lr;-inkscape-font-specification:Courier"
             x="0 6"
             y="0"
             sodipodi:role="line"
             id="tspan154">20</tspan></text>
</g><path
         d="m 5579.5,320 0,3879.5"
         style="fill:none;stroke:#000000;stroke-opacity:1;stroke-width:1.25;stroke-linecap:butt;stroke-linejoin:miter;stroke-miterlimit:3.8;stroke-dasharray:5,10;stroke-dashoffset:0"
         id="path156" /><path
         d="m 5579.5,320 0,44"
         style="fill:none;stroke:#000000;stroke-opacity:1;stroke-width:5;stroke-linecap:butt;stroke-linejoin:miter;stroke-miterlimit:3.8;stroke-dasharray:none"
         id="path158" /><g
         id="g160"
         transform="scale(10,10)"><text
           transform="matrix(1,0,0,-1,551.95,18.6648)"
           id="text162"><tspan
             style="fill:#000000;fill-opacity:1;fill-rule:nonzero;stroke:none;font-family:Courier 10 Pitch;font-variant:normal;font-weight:normal;font-size:10;writing-mode:lr;-inkscape-font-specification:Courier"
             x="0 6"
             y="0"
             sodipodi:role="line"
             id="tspan164">25</tspan></text>
</g><path
         d="M 490,4199.5 490,320 5579.5,320"
         style="fill:none;stroke:#000000;stroke-opacity:1;stroke-width:5;stroke-linecap:butt;stroke-linejoin:miter;stroke-miterlimit:3.8;stroke-dasharray:none"
         id="path166" /><g
         id="g168"
         transform="scale(10,10)"><text
           transform="matrix(0,1,1,0,11.5,217.85)"
           id="text170"><tspan
             style="fill:#000000;fill-opacity:1;fill-rule:nonzero;stroke:none;font-family:Courier 10 Pitch;font-variant:normal;font-weight:normal;font-size:15;writing-mode:lr;-inkscape-font-specification:Courier"
             x="0"
             y="0"
             id="tspan172">C</tspan></text>
<text
           transform="matrix(0,1,1,0,16,226.85)"
           id="text174"><tspan
             style="fill:#000000;fill-opacity:1;fill-rule:nonzero;stroke:none;font-family:Courier 10 Pitch;font-variant:normal;font-weight:normal;font-size:12;writing-mode:lr;-inkscape-font-specification:Courier"
             x="0"
             y="0"
             id="tspan176">N</tspan></text>
<text
           transform="matrix(1,0,0,-1,210.218,2)"
           id="text178"><tspan
             style="fill:#000000;fill-opacity:1;fill-rule:nonzero;stroke:none;font-family:Courier 10 Pitch;font-variant:normal;font-weight:normal;font-size:15;writing-mode:lr;-inkscape-font-specification:Courier"
             x="0 9 18 27 36 45 54 63 72 81 90 99 108 117 126 135"
             y="0"
             sodipodi:role="line"
             id="tspan180">Angle of attack </tspan></text>
<text
           transform="matrix(1,0,0,-1,354.218,2)"
           id="text182"><tspan
             style="fill:#000000;fill-opacity:1;fill-rule:nonzero;stroke:none;font-family:Symbol Neu;font-variant:normal;font-weight:normal;font-size:15;writing-mode:lr;-inkscape-font-specification:Symbol"
             x="0"
             y="0"
             id="tspan184">α</tspan></text>
<text
           transform="matrix(1,0,0,-1,372.68284,2)"
           id="text186"><tspan
             style="fill:#000000;fill-opacity:1;fill-rule:nonzero;stroke:none;font-family:Courier 10 Pitch;font-variant:normal;font-weight:normal;font-size:15;writing-mode:lr;-inkscape-font-specification:Courier"
             x="0"
             y="0"
             id="tspan188">[</tspan></text>
<text
           transform="matrix(1,0,0,-1,381.68284,2)"
           id="text190"><tspan
             style="fill:#000000;fill-opacity:1;fill-rule:nonzero;stroke:none;font-family:Symbol Neu;font-variant:normal;font-weight:normal;font-size:15;writing-mode:lr;-inkscape-font-specification:Symbol"
             x="0"
             y="0"
             id="tspan192">°</tspan></text>
<text
           transform="matrix(1,0,0,-1,387.68284,2)"
           id="text194"><tspan
             style="fill:#000000;fill-opacity:1;fill-rule:nonzero;stroke:none;font-family:Courier 10 Pitch;font-variant:normal;font-weight:normal;font-size:15;writing-mode:lr;-inkscape-font-specification:Courier"
             x="0"
             y="0"
             id="tspan196">]</tspan></text>
</g><path
         d="m 1852,1550.5 80,57 81,58 82,59.5 83.5,59.5 84,61 85,61 85.5,62 86,62.5 86.5,63 87,63.5 87,63.5 87,64 87,64 87,64.5 86.5,64 86,64 85.5,64 84.5,63 84,62.5 83.5,62 82,61 81,59.5 79.5,59 78.5,57.5 76.5,56 75.5,55 73.5,53 72,51.5 69.5,50 68,48 66,46 63.5,44 61.5,41.5 59,40 56.5,37 54,35 51.5,32.5 49,30.5 46,27 43,25 40.5,22.5 37.5,19 34.5,17 31.5,14 28.5,11 25.5,8 22.5,5.5 19,1.5 15.5,-2 13,-5 9.5,-8.5 6,-11.5 3,-14 -0.5,-17 -3.5,-19.5 -6.5,-22 -10.5,-24.5 -13,-28 -16.5,-30 -19.5,-33 -23,-35.5 -26,-37 -29,-39 -32,-40 -35.5,-41.5 -38,-42.5 -41,-43 -43.5,-44 -46.5,-44 -49.5,-44 -52,-44.5 -54.5,-44.5 -57,-44 -59.5,-44 -62,-43.5 -64,-43.5 -66,-43 -68.5,-42.5 -70,-42 -72.5,-41.5 -73.5,-41 -75.5,-40.5 -77.5,-40 -78.5,-40 -80,-39.5 -81,-39.5 -82.5,-40 -83,-40 -84.5,-41 -84.5,-41.5 -86,-42 -86,-43 -86.5,-43.5 -87,-44.5 -87,-44.5 -87,-45.5 -87,-46.5 -86.5,-46.5 -86.5,-48 -86,-48.5 -85.5,-49 -85,-49.5 -84,-50 -83,-50.5 -82,-51 -81,-50.5 -79.5,-50.5 -78.5,-51 -76.5,-50 -75.5,-50 -73.5,-49.5 -71.5,-49 -70,-48 -67.5,-47 -66,-46.5 -63.5,-45 -61,-44 -59,-43 L 1018,971 964,931 912.5,893 864,856 818,821 775,788 734.5,757 697,727.5 663,701 631.5,676 603,654 l -25,-20 -22.5,-17.5 -19,-15 -15.5,-12 -12.5,-10 -9.5,-7.5 -6,-5 -3,-2 0.5,0 4,2.5 7,5 10,8 13.5,10 16.5,12.5 20,14.5 23,17.5 26,19.5 29,21.5 32.5,24 35,26 38,28 41.5,30 44,32.5 46.5,34 49.5,36 52,37.5 54.5,39.5 57,41.5 60,43 61.5,44.5 64.5,46 66,47.5 68.5,49 70.5,50 72,51.5 74,53 75.5,54 77.5,55 78.5,56.5 80,57.5"
         style="fill:none;stroke:#ff0000;stroke-opacity:1;stroke-width:5;stroke-linecap:butt;stroke-linejoin:miter;stroke-miterlimit:3.8;stroke-dasharray:none"
         id="path198" /></g><path
       sodipodi:type="arc"
       style="fill:#ffffff;stroke:#ff0000;stroke-width:4.90000009999999975;stroke-miterlimit:4.90000009999999975;stroke-opacity:1;stroke-dasharray:none;stroke-dashoffset:0;fill-opacity:1"
       id="path3177"
       sodipodi:cx="-111.876"
       sodipodi:cy="0.48202938"
       sodipodi:rx="20.267391"
       sodipodi:ry="19.862043"
       d="m -91.608608,0.48202938 a 20.267391,19.862043 0 1 1 -40.534782,0 20.267391,19.862043 0 1 1 40.534782,0 z"
       transform="matrix(0.17588395,0,0,-0.17947345,365.45216,273.22301)" /><path
       sodipodi:type="arc"
       style="fill:#ffffff;fill-opacity:1;stroke:#ff0000;stroke-width:4.9000001;stroke-miterlimit:4.9000001;stroke-opacity:1;stroke-dasharray:none;stroke-dashoffset:0"
       id="path3177-1"
       sodipodi:cx="-111.876"
       sodipodi:cy="0.48202938"
       sodipodi:rx="20.267391"
       sodipodi:ry="19.862043"
       d="m -91.608608,0.48202938 a 20.267391,19.862043 0 1 1 -40.534782,0 20.267391,19.862043 0 1 1 40.534782,0 z"
       transform="matrix(0.17588395,0,0,-0.17947345,529.44263,362.62962)" /><path
       sodipodi:type="arc"
       style="fill:#ffffff;fill-opacity:1;stroke:#ff0000;stroke-width:4.9000001;stroke-miterlimit:4.9000001;stroke-opacity:1;stroke-dasharray:none;stroke-dashoffset:0"
       id="path3177-9"
       sodipodi:cx="-111.876"
       sodipodi:cy="0.48202938"
       sodipodi:rx="20.267391"
       sodipodi:ry="19.862043"
       d="m -91.608608,0.48202938 a 20.267391,19.862043 0 1 1 -40.534782,0 20.267391,19.862043 0 1 1 40.534782,0 z"
       transform="matrix(0.17588395,0,0,-0.17947345,369.89772,245.24089)" /><path
       style="fill:none;stroke:#000000;stroke-width:1px;stroke-linecap:butt;stroke-linejoin:miter;stroke-opacity:1;marker-end:url(#Arrow1Lend)"
       d="m 459.66445,162.21582 c 0,0 15.97647,-13.74935 25.5861,-21.02937 8.22568,-6.23158 27.91981,-19.50542 27.91981,-19.50542"
       id="path3990"
       inkscape:connector-curvature="0"
       transform="matrix(0.8,0,0,-0.8,0,432)"
       sodipodi:nodetypes="csc" /><path
       style="fill:none;stroke:#000000;stroke-width:0.80000001px;stroke-linecap:butt;stroke-linejoin:miter;stroke-opacity:1;marker-end:url(#Arrow1Lend)"
       d="m 460.47514,297.68745 c 0,0 -12.78117,-10.99948 -20.46888,-16.82349 -6.58054,-4.98527 -22.33584,-15.60434 -22.33584,-15.60434"
       id="path3990-4"
       inkscape:connector-curvature="0"
       sodipodi:nodetypes="csc" /><rect
       style="fill:#ffffff;fill-opacity:1;fill-rule:nonzero;stroke:#000000;stroke-width:1.6;stroke-opacity:1;stroke-miterlimit:4;stroke-dasharray:none"
       id="rect4490"
       width="138.31192"
       height="20.923195"
       x="227.88293"
       y="-383.05731"
       transform="scale(1,-1)" /><text
       xml:space="preserve"
       style="font-size:32px;font-style:normal;font-weight:normal;line-height:125%;letter-spacing:0px;word-spacing:0px;fill:#000000;fill-opacity:1;stroke:none;font-family:Sans"
       x="297.93436"
       y="-367.08301"
       id="text4460"
       sodipodi:linespacing="125%"
       transform="scale(1,-1)"><tspan
         sodipodi:role="line"
         id="tspan4462"
         x="297.93436"
         y="-367.08301"
         style="font-size:14.39999962px;text-align:center;text-anchor:middle;stroke:none">Vortex convection</tspan></text>
<path
       style="fill:none;stroke:#000000;stroke-width:1px;stroke-linecap:butt;stroke-linejoin:miter;stroke-opacity:1"
       d="m 457.23236,72.228596 90.79792,42.966874"
       id="path4494"
       inkscape:connector-curvature="0"
       transform="matrix(0.8,0,0,-0.8,0,432)" /><rect
       style="fill:#ffffff;fill-opacity:1;fill-rule:nonzero;stroke:#000000;stroke-width:2.29518628;stroke-miterlimit:4;stroke-opacity:1;stroke-dasharray:none"
       id="rect4490-9"
       width="107.78313"
       height="55.250061"
       x="434.22742"
       y="-248.70259"
       transform="scale(1,-1)" /><text
       xml:space="preserve"
       style="font-size:32px;font-style:normal;font-weight:normal;line-height:125%;letter-spacing:0px;word-spacing:0px;fill:#000000;fill-opacity:1;stroke:none;font-family:Sans"
       x="488.36591"
       y="-235.6701"
       id="text4460-5"
       sodipodi:linespacing="125%"
       transform="scale(1,-1)"><tspan
         sodipodi:role="line"
         x="490.65811"
         y="-235.6701"
         style="font-size:14.39999962px;text-align:center;text-anchor:middle;stroke:none"
         id="tspan4527">End of trailing </tspan><tspan
         sodipodi:role="line"
         x="488.36591"
         y="-217.6701"
         style="font-size:14.39999962px;text-align:center;text-anchor:middle;stroke:none"
         id="tspan4529">edge, full stall</tspan><tspan
         sodipodi:role="line"
         x="488.36591"
         y="-199.6701"
         style="font-size:14.39999962px;text-align:center;text-anchor:middle;stroke:none"
         id="tspan4537">starting</tspan></text>
<path
       style="fill:none;stroke:#000000;stroke-width:0.80000001px;stroke-linecap:butt;stroke-linejoin:miter;stroke-opacity:1"
       d="M 511.46703,358.89584 541.94919,249.28978"
       id="path4494-2"
       inkscape:connector-curvature="0"
       sodipodi:nodetypes="cc" /><rect
       style="fill:#ffffff;fill-opacity:1;fill-rule:nonzero;stroke:#000000;stroke-width:2.05806518;stroke-miterlimit:4;stroke-opacity:1;stroke-dasharray:none"
       id="rect4490-1"
       width="137.85385"
       height="34.733372"
       x="360.17343"
       y="-144.40355"
       transform="scale(1,-1)" /><text
       xml:space="preserve"
       style="font-size:32px;font-style:normal;font-weight:normal;line-height:125%;letter-spacing:0px;word-spacing:0px;fill:#000000;fill-opacity:1;stroke:none;font-family:Sans"
       x="428.05014"
       y="-131.25252"
       id="text4460-53"
       sodipodi:linespacing="125%"
       transform="scale(1,-1)"><tspan
         sodipodi:role="line"
         id="tspan4462-5"
         x="430.34232"
         y="-131.25252"
         style="font-size:14.39999962px;text-align:center;text-anchor:middle;stroke:none">Beginning of flow </tspan><tspan
         sodipodi:role="line"
         x="428.05014"
         y="-113.25252"
         style="font-size:14.39999962px;text-align:center;text-anchor:middle;stroke:none"
         id="tspan4552">reattachment</tspan></text>
<path
       style="fill:none;stroke:#000000;stroke-width:0.80000001px;stroke-linecap:butt;stroke-linejoin:miter;stroke-opacity:1"
       d="m 351.27357,242.15567 7.78269,-97.28348"
       id="path4494-8"
       inkscape:connector-curvature="0"
       sodipodi:nodetypes="cc" /><rect
       style="fill:#ffffff;fill-opacity:1;fill-rule:nonzero;stroke:#000000;stroke-width:2.00225711;stroke-miterlimit:4;stroke-opacity:1;stroke-dasharray:none"
       id="rect4490-2"
       width="125.58709"
       height="36.086292"
       x="70.484825"
       y="-339.07861"
       transform="scale(1,-1)" /><text
       xml:space="preserve"
       style="font-size:32px;font-style:normal;font-weight:normal;line-height:125%;letter-spacing:0px;word-spacing:0px;fill:#000000;fill-opacity:1;stroke:none;font-family:Sans"
       x="133.84956"
       y="-324.6026"
       id="text4460-1"
       sodipodi:linespacing="125%"
       transform="scale(1,-1)"><tspan
         sodipodi:role="line"
         id="tspan4462-7"
         x="136.14175"
         y="-324.6026"
         style="font-size:14.39999962px;text-align:center;text-anchor:middle;stroke:none">Leading edge </tspan><tspan
         sodipodi:role="line"
         x="133.84956"
         y="-306.6026"
         style="font-size:14.39999962px;text-align:center;text-anchor:middle;stroke:none"
         id="tspan4596">vortex formation</tspan></text>
<path
       style="fill:none;stroke:#000000;stroke-width:1.03601646px;stroke-linecap:butt;stroke-linejoin:miter;stroke-opacity:1"
       d="M 197.01575,302.43363 342.9684,274.78171"
       id="path4494-5"
       inkscape:connector-curvature="0"
       sodipodi:nodetypes="cc" /></g></svg>